<svg width="20" height="20" viewBox="0 0 20 20" fill="none" xmlns="http://www.w3.org/2000/svg">
<path d="M12.359 9.99982L6.08176 3.72257C5.91616 3.55697 5.8355 3.35986 5.83976 3.13123C5.84404 2.90259 5.92898 2.70548 6.09457 2.5399C6.26017 2.3743 6.45728 2.2915 6.68591 2.2915C6.91453 2.2915 7.11164 2.3743 7.27724 2.5399L13.6571 8.93253C13.8077 9.08316 13.9193 9.25196 13.992 9.43892C14.0646 9.62589 14.1009 9.81286 14.1009 9.99982C14.1009 10.1868 14.0646 10.3737 13.992 10.5607C13.9193 10.7477 13.8077 10.9165 13.6571 11.0671L7.26443 17.4597C7.09883 17.6253 6.90385 17.706 6.67949 17.7017C6.45514 17.6975 6.26017 17.6125 6.09457 17.4469C5.92898 17.2813 5.84618 17.0842 5.84618 16.8556C5.84618 16.627 5.92898 16.4299 6.09457 16.2643L12.359 9.99982Z" fill="#333236"/>
</svg>
