<svg width="7" height="6" viewBox="0 0 7 6" fill="none" xmlns="http://www.w3.org/2000/svg">
<path d="M3.0303 4.39394C3.40909 4.39394 3.73106 4.26136 3.99621 3.99621C4.26136 3.73106 4.39394 3.40909 4.39394 3.0303C4.39394 2.65152 4.26136 2.32955 3.99621 2.06439C3.73106 1.79924 3.40909 1.66667 3.0303 1.66667C2.65152 1.66667 2.32955 1.79924 2.06439 2.06439C1.79924 2.32955 1.66667 2.65152 1.66667 3.0303C1.66667 3.40909 1.79924 3.73106 2.06439 3.99621C2.32955 4.26136 2.65152 4.39394 3.0303 4.39394ZM3.0303 3.78788C2.81818 3.78788 2.63889 3.71465 2.49242 3.56818C2.34596 3.42172 2.27273 3.24242 2.27273 3.0303C2.27273 2.81818 2.34596 2.63889 2.49242 2.49242C2.63889 2.34596 2.81818 2.27273 3.0303 2.27273C3.24242 2.27273 3.42172 2.34596 3.56818 2.49242C3.71465 2.63889 3.78788 2.81818 3.78788 3.0303C3.78788 3.24242 3.71465 3.42172 3.56818 3.56818C3.42172 3.71465 3.24242 3.78788 3.0303 3.78788ZM0.606061 5.45455C0.439394 5.45455 0.296717 5.3952 0.17803 5.27652C0.0593434 5.15783 0 5.01515 0 4.84848V1.21212C0 1.04545 0.0593434 0.902778 0.17803 0.784091C0.296717 0.665404 0.439394 0.606061 0.606061 0.606061H1.56061L1.93939 0.19697C1.99495 0.136364 2.06187 0.0883838 2.14015 0.0530303C2.21843 0.0176768 2.3005 0 2.38636 0H3.67424C3.7601 0 3.84217 0.0176768 3.92045 0.0530303C3.99874 0.0883838 4.06566 0.136364 4.12121 0.19697L4.5 0.606061H5.45455C5.62121 0.606061 5.76389 0.665404 5.88258 0.784091C6.00126 0.902778 6.06061 1.04545 6.06061 1.21212V4.84848C6.06061 5.01515 6.00126 5.15783 5.88258 5.27652C5.76389 5.3952 5.62121 5.45455 5.45455 5.45455H0.606061Z" fill="white"/>
</svg>
