<svg width="34" height="34" viewBox="0 0 34 34" fill="none" xmlns="http://www.w3.org/2000/svg">
<circle cx="17" cy="17" r="16.5" fill="#D9D9D9" stroke="#D9D9D9"/>
<path d="M17 1C8.1625 1 1 8.1625 1 17C1 25.8375 8.1625 33 17 33C25.8375 33 33 25.8375 33 17C33 8.1625 25.8375 1 17 1ZM17 9C19.4856 9 21.5 11.015 21.5 13.5C21.5 15.985 19.4875 18 17 18C14.515 18 12.5 15.985 12.5 13.5C12.5 11.015 14.5125 9 17 9ZM17 29C13.6919 29 10.6938 27.6544 8.51875 25.4819C9.53125 22.8687 12.0312 21 15 21H19C21.9713 21 24.4713 22.8675 25.4813 25.4819C23.3063 27.6562 20.3062 29 17 29Z" fill="#FAFAFA"/>
</svg>
