<svg width="24" height="24" viewBox="0 0 24 24" fill="none" xmlns="http://www.w3.org/2000/svg">
<path fill-rule="evenodd" clip-rule="evenodd" d="M5.70605 9.93267C6.07681 9.93267 6.37792 10.2329 6.37793 10.6036C6.37793 10.9743 6.07682 11.2745 5.70605 11.2745H3.18848C2.86423 11.2747 2.60156 11.5381 2.60156 11.8624V22.0704C2.60156 22.3946 2.86423 22.6581 3.18848 22.6583H20.8115C21.1358 22.6581 21.3984 22.3947 21.3984 22.0704V11.8624C21.3984 11.5381 21.1358 11.2746 20.8115 11.2745H18.2939C17.9232 11.2745 17.6221 10.9743 17.6221 10.6036C17.6221 10.2329 17.9232 9.93267 18.2939 9.93267H20.8115C21.8773 9.93283 22.7412 10.7966 22.7412 11.8624V22.0704C22.7412 23.1361 21.8773 23.9999 20.8115 24.0001H3.18848C2.1227 23.9998 1.25879 23.1361 1.25879 22.0704V11.8624C1.25879 10.7967 2.1227 9.93288 3.18848 9.93267H5.70605ZM11.5254 0.196345C11.7875 -0.0654652 12.2125 -0.0654313 12.4746 0.196345L17.5098 5.2315C17.7717 5.49366 17.7719 5.91866 17.5098 6.18072C17.2477 6.44263 16.8227 6.44254 16.5605 6.18072L12.6709 2.29107V13.2569C12.6709 13.6276 12.3708 13.9288 12 13.9288C11.6293 13.9287 11.3291 13.6276 11.3291 13.2569V2.29107L7.43945 6.18072C7.17728 6.4425 6.7523 6.44266 6.49023 6.18072C6.22815 5.91867 6.22833 5.49366 6.49023 5.2315L11.5254 0.196345Z" fill="#9FA6B2"/>
</svg>
